<?xml version="1.0" standalone="no"?>
<!DOCTYPE svg PUBLIC "-//W3C//DTD SVG 20010904//EN"
 "http://www.w3.org/TR/2001/REC-SVG-20010904/DTD/svg10.dtd">
<svg version="1.0" xmlns="http://www.w3.org/2000/svg"
 width="300.000000pt" height="300.000000pt" viewBox="0 0 300.000000 300.000000"
 preserveAspectRatio="xMidYMid meet">
<metadata>
Created by potrace 1.10, written by Peter Selinger 2001-2011
</metadata>
<g transform="translate(0.000000,300.000000) scale(0.100000,-0.100000)"
fill="#000000" stroke="none">
<path d="M1475 2324 c-20 -21 -25 -38 -26 -78 l0 -51 -18 40 c-25 55 -54 79
-85 71 -37 -9 -43 -46 -17 -107 21 -52 20 -69 -3 -69 -22 0 -115 -99 -141
-150 -68 -135 -50 -251 65 -425 l47 -70 -2 -118 c-2 -112 -1 -119 23 -144 14
-15 30 -41 37 -57 26 -60 81 -96 149 -96 38 0 53 6 83 33 21 18 51 39 66 47
30 15 61 62 49 74 -3 4 -5 61 -4 128 3 131 4 134 75 240 25 36 53 90 63 120
55 161 -17 338 -174 427 -10 6 -9 18 7 60 26 65 26 83 1 106 -17 15 -24 16
-46 7 -14 -7 -30 -26 -36 -42 -12 -37 -28 -39 -28 -4 0 33 -15 61 -40 74 -17
9 -25 6 -45 -16z m55 -75 c0 -67 -1 -70 -22 -67 -20 3 -23 10 -26 57 -4 66 1
81 28 81 18 0 20 -6 20 -71z m136 36 c10 -25 -37 -125 -58 -125 -30 0 -31 23
-4 84 25 55 50 72 62 41z m-266 -50 c23 -57 22 -85 -5 -85 -17 0 -68 107 -61
127 3 7 14 13 25 13 13 0 25 -15 41 -55z m235 -126 c104 -49 176 -154 183
-266 6 -82 -16 -142 -89 -253 -48 -72 -59 -97 -59 -129 0 -34 -3 -41 -20 -41
-17 0 -20 7 -20 40 0 45 15 79 65 149 88 122 107 228 61 326 -43 94 -152 165
-251 165 -154 0 -285 -127 -285 -277 0 -60 27 -123 98 -232 64 -96 71 -111 50
-111 -21 0 -31 11 -95 110 -75 116 -98 180 -90 259 8 89 66 190 134 232 105
65 219 75 318 28z m-46 -63 c28 -10 31 -14 17 -19 -10 -4 -22 -5 -27 -1 -23
14 -134 13 -156 -1 -12 -8 -29 -15 -37 -15 -9 0 -32 -14 -53 -32 l-38 -32 39
42 c22 23 58 48 80 56 50 18 129 19 175 2z m-95 -73 c-1 -18 2 -33 7 -33 9 0
13 22 10 48 -3 18 29 27 50 14 10 -7 34 -12 52 -12 22 0 41 -8 55 -23 20 -21
21 -25 6 -45 -8 -12 -24 -22 -35 -22 -10 0 -19 -4 -19 -10 0 -16 50 -12 56 5
4 8 12 15 19 15 24 0 26 -37 5 -73 -32 -54 -70 -61 -70 -12 0 14 -8 29 -19 35
-25 13 -41 13 -41 0 0 -5 6 -10 14 -10 22 0 39 -28 32 -55 -8 -32 -31 -32 -59
1 -14 16 -30 25 -42 22 -17 -3 -16 -6 9 -18 37 -19 45 -40 17 -47 -11 -3 -23
-14 -26 -24 -4 -11 -22 -40 -41 -64 -19 -25 -34 -48 -34 -50 0 -17 46 23 76
66 34 46 101 89 141 89 8 0 31 16 50 35 20 20 37 34 40 32 13 -14 -26 -118
-74 -194 -70 -111 -83 -137 -83 -162 0 -22 -8 -22 -102 -2 -61 13 -83 29 -102
71 -6 14 -29 52 -52 85 -46 69 -70 122 -59 133 4 4 10 1 12 -5 3 -7 10 -13 17
-13 7 0 25 -11 40 -25 16 -14 39 -33 52 -42 19 -12 22 -19 13 -29 -9 -11 -8
-14 5 -14 16 0 36 37 36 66 0 11 -6 13 -20 9 -45 -14 -84 22 -57 54 23 27 26
48 11 68 -15 17 -15 17 -10 -6 7 -33 -10 -61 -38 -61 -31 0 -46 19 -44 56 1
16 -2 37 -6 46 -5 11 0 24 15 39 l22 22 8 -21 c11 -29 55 -50 71 -34 9 9 6 12
-15 12 -24 0 -47 23 -47 49 0 20 33 42 55 37 17 -4 24 -1 28 15 4 16 12 20 39
17 30 -3 33 -6 32 -35z m26 -539 c130 -28 169 -46 149 -71 -16 -19 -54 -16
-187 12 -138 30 -162 39 -162 60 0 17 37 36 60 30 8 -2 71 -16 140 -31z m-6
-83 c75 -16 143 -34 151 -41 17 -14 10 -37 -13 -44 -22 -7 -309 57 -323 71
-17 17 -3 43 24 43 13 0 85 -13 161 -29z m-3 -81 c78 -17 145 -33 150 -36 17
-10 9 -43 -11 -49 -17 -5 -144 18 -284 53 -37 9 -57 39 -36 52 21 14 24 13
181 -20z m-8 -79 c49 -11 90 -21 93 -23 10 -10 -30 -48 -62 -58 -52 -18 -106
0 -133 44 -26 42 -28 69 -3 62 9 -3 57 -14 105 -25z"/>
<path d="M1575 1961 c-3 -6 -12 -8 -20 -4 -8 3 -15 1 -15 -5 0 -10 68 -38 75
-30 2 1 -5 13 -15 26 -10 12 -21 18 -25 13z"/>
<path d="M1490 1903 c0 -6 -10 -13 -22 -16 -22 -3 -22 -4 -3 -11 11 -4 28 -12
38 -17 20 -11 39 -3 21 9 -6 4 -16 16 -22 27 -6 11 -12 15 -12 8z"/>
<path d="M1423 1797 c9 -8 17 -19 17 -26 0 -6 5 -11 10 -11 6 0 10 4 10 10 0
5 7 7 15 4 8 -4 15 -1 15 4 0 14 -8 18 -50 26 -31 6 -33 5 -17 -7z"/>
<path d="M1410 1171 c11 -21 48 -51 63 -51 5 0 -8 16 -29 35 -42 40 -49 43
-34 16z"/>
<path d="M1429 1014 c-26 -25 -28 -26 -197 -28 -124 -2 -175 -6 -186 -15 -14
-12 -19 -11 -34 3 -10 9 -28 16 -39 16 -11 0 -28 9 -38 20 -22 24 -52 26 -77
3 -18 -16 -21 -16 -47 0 -41 24 -66 21 -90 -9 -18 -22 -21 -41 -21 -114 0 -78
2 -89 23 -108 27 -25 54 -28 81 -7 17 13 22 13 42 0 27 -17 57 -19 84 -5 13 7
27 5 49 -6 19 -10 42 -13 57 -10 14 4 56 7 92 7 46 1 72 6 84 16 15 14 21 13
62 -7 27 -12 54 -19 65 -15 11 3 53 6 93 7 40 0 80 5 89 11 12 7 28 6 59 -7
45 -18 88 -15 125 10 18 12 27 11 64 -8 43 -21 45 -21 95 -4 47 16 54 16 81 2
30 -16 129 -13 148 4 5 4 30 1 57 -8 45 -14 50 -14 86 5 78 40 94 131 33 189
-25 24 -39 29 -82 29 -43 0 -57 5 -79 28 -30 30 -59 35 -77 13 -7 -8 -37 -26
-67 -40 -51 -24 -57 -25 -84 -11 -33 17 -83 20 -109 5 -14 -7 -25 -4 -47 15
-38 33 -86 41 -146 25 -43 -10 -51 -10 -67 4 -25 23 -53 20 -82 -10z m74 -117
l2 -107 -27 0 -28 0 0 111 0 110 26 -3 c25 -3 25 -3 27 -111z m587 3 l0 -110
-25 0 c-14 0 -25 5 -25 12 0 9 -3 9 -12 0 -19 -19 -59 -14 -85 10 -27 26 -31
82 -7 116 17 25 71 30 93 10 10 -11 12 -6 11 22 -3 50 -3 50 25 50 l25 0 0
-110z m-1259 29 l39 -64 0 68 c0 65 1 67 25 67 l25 0 0 -106 0 -105 -27 3
c-21 2 -35 16 -63 63 l-35 60 -3 -63 c-3 -58 -4 -62 -27 -62 -25 0 -25 0 -25
104 l0 105 26 -3 c19 -2 35 -18 65 -67z m844 57 c18 -8 38 -24 45 -35 10 -19
8 -21 -24 -21 -19 0 -38 5 -41 10 -9 15 -42 12 -59 -6 -19 -18 -21 -65 -4 -82
15 -15 65 -16 70 -1 2 6 19 9 38 7 l35 -3 -32 -32 c-25 -27 -39 -33 -73 -33
-85 0 -132 97 -79 164 36 45 70 54 124 32z m-435 -56 c0 -23 -4 -30 -20 -30
-18 0 -20 -7 -20 -55 0 -52 -1 -55 -25 -55 -25 0 -25 1 -25 80 0 79 0 80 25
80 14 0 25 -5 25 -11 0 -6 7 -3 16 5 21 22 24 20 24 -14z m-238 -28 c-3 -36 0
-51 12 -61 30 -25 46 -6 46 54 0 53 1 55 28 55 l27 0 0 -80 0 -80 -27 0 c-16
0 -28 5 -28 10 0 6 -7 6 -18 -1 -28 -17 -71 -3 -82 27 -6 14 -10 48 -10 75 0
47 1 49 29 49 28 0 28 -1 23 -48z m418 -33 c0 -78 0 -79 -25 -79 -14 0 -25 5
-25 12 0 9 -3 9 -12 0 -21 -21 -65 -14 -87 14 -26 34 -27 74 -1 107 18 23 27
25 85 25 l65 0 0 -79z m458 65 c31 -21 31 -95 0 -124 -50 -46 -138 -7 -138 61
0 67 80 104 138 63z m372 -4 c11 -11 20 -32 20 -47 0 -28 -1 -28 -56 -25 -44
3 -55 1 -52 -10 4 -9 21 -12 59 -10 l54 3 -28 -26 c-77 -69 -181 27 -116 109
26 33 88 37 119 6z"/>
<path d="M1977 903 c-12 -11 -8 -50 7 -62 30 -25 71 24 46 54 -13 16 -42 20
-53 8z"/>
<path d="M1310 895 c-26 -31 13 -82 44 -56 19 16 21 42 4 59 -16 16 -33 15
-48 -3z"/>
<path d="M1797 903 c-21 -20 1 -73 30 -73 22 0 38 46 23 65 -13 15 -42 20 -53
8z"/>
<path d="M2167 904 c-14 -14 -6 -21 23 -20 16 1 28 6 27 11 -4 12 -40 19 -50
9z"/>
</g>
</svg>
